<svg width="1445" height="576" viewBox="0 0 1445 576" fill="none" xmlns="http://www.w3.org/2000/svg">
<g clip-path="url(#clip0_404_11)">
<path d="M650.619 291.351H837.119M1430.62 291.351H1288.12" stroke="#2D2D2D" stroke-width="20" stroke-linecap="round"/>
<path d="M821.859 350.123C852.549 350.123 868.785 334.085 868.785 313.295C868.785 292.901 853.143 284.783 839.085 279.437C827.403 275.279 817.701 272.705 817.701 265.973C817.701 260.627 821.463 257.855 829.581 257.855C836.907 257.855 844.827 261.617 852.945 267.359L868.587 246.371C859.083 239.045 846.015 231.917 828.393 231.917C802.059 231.917 784.833 246.371 784.833 267.557C784.833 286.367 800.079 295.475 813.543 300.821C825.027 305.375 835.917 308.543 835.917 315.275C835.917 320.819 831.957 324.185 822.651 324.185C813.741 324.185 804.435 320.027 794.139 312.305L778.497 334.283C789.981 343.787 807.207 350.123 821.859 350.123ZM927.49 350.123C938.974 350.123 947.092 347.747 953.032 345.965L947.488 320.423C944.716 321.413 940.756 322.601 937.192 322.601C928.876 322.601 922.936 317.651 922.936 305.177V262.211H949.468V234.689H922.936V204.791H893.83L889.87 234.689L872.446 236.075V262.211H887.692V305.573C887.692 332.105 899.176 350.123 927.49 350.123ZM993.635 350.123C1006.11 350.123 1016.6 344.381 1025.91 336.065H1026.9L1029.27 347.351H1057.98V283.397C1057.98 248.153 1041.55 231.917 1012.44 231.917C994.823 231.917 978.785 237.857 963.935 246.767L976.211 269.933C987.497 263.597 996.803 260.033 1005.71 260.033C1017.2 260.033 1021.95 265.379 1022.74 274.487C978.785 279.239 960.173 292.109 960.173 315.869C960.173 334.679 972.845 350.123 993.635 350.123ZM1005.71 322.799C998.387 322.799 993.635 319.631 993.635 313.097C993.635 305.177 1000.76 298.643 1022.74 295.871V313.889C1017.59 319.433 1012.84 322.799 1005.71 322.799ZM1125.59 394.673C1164.79 394.673 1189.54 377.843 1189.54 354.083C1189.54 333.689 1173.7 325.175 1145.98 325.175H1128.16C1116.09 325.175 1111.53 322.799 1111.53 317.651C1111.53 313.691 1112.72 312.107 1115.1 309.731C1120.05 311.117 1124.6 311.711 1128.36 311.711C1153.31 311.711 1173.31 300.227 1173.31 273.893C1173.31 268.547 1171.92 263.399 1170.34 260.231H1187.56V234.689H1146.18C1141.03 232.907 1134.9 231.917 1128.36 231.917C1104.01 231.917 1081.24 245.381 1081.24 272.705C1081.24 285.971 1088.56 296.465 1096.68 302.009V302.801C1089.16 307.949 1084.01 315.869 1084.01 323.789C1084.01 333.293 1088.37 339.233 1094.31 343.193V344.183C1083.81 349.529 1078.47 357.053 1078.47 366.359C1078.47 386.555 1099.65 394.673 1125.59 394.673ZM1128.36 290.525C1120.24 290.525 1114.11 284.585 1114.11 272.705C1114.11 261.419 1120.24 255.479 1128.36 255.479C1136.68 255.479 1142.82 261.419 1142.82 272.705C1142.82 284.585 1136.68 290.525 1128.36 290.525ZM1131.13 372.695C1116.88 372.695 1107.37 368.735 1107.37 360.815C1107.37 357.053 1108.96 353.885 1112.52 350.717C1116.09 351.707 1120.44 352.103 1128.56 352.103H1139.25C1149.75 352.103 1155.69 353.489 1155.69 360.221C1155.69 367.349 1145.59 372.695 1131.13 372.695ZM1252.69 350.123C1265.75 350.123 1281.2 345.569 1292.88 337.253L1281.2 316.067C1273.08 320.819 1265.56 323.195 1257.44 323.195C1243.18 323.195 1232.49 316.859 1229.32 301.415H1295.45C1296.25 298.643 1297.04 292.505 1297.04 286.169C1297.04 255.479 1281.2 231.917 1248.73 231.917C1221.6 231.917 1195.27 254.489 1195.27 290.921C1195.27 328.343 1220.21 350.123 1252.69 350.123ZM1228.73 278.249C1231.1 264.983 1239.62 258.845 1249.32 258.845C1262.19 258.845 1267.14 267.161 1267.14 278.249H1228.73Z" fill="#2D2D2D"/>
<path d="M29.486 290.619L182.552 25.5L488.685 25.5L641.751 290.619L488.685 555.737L182.552 555.737L29.486 290.619Z" fill="white" stroke="#FF4848" stroke-width="50"/>
<path d="M293.619 368.351H246.419L223.019 323.751L200.019 368.351H153.218L197.819 295.351L155.818 225.551H201.019L222.619 269.751L243.019 225.551H290.419L247.619 298.351L293.619 368.351ZM400.015 324.951C400.015 332.684 398.215 340.017 394.615 346.951C391.149 353.884 385.415 359.551 377.415 363.951C369.415 368.217 358.815 370.351 345.615 370.351C338.682 370.351 332.815 370.017 328.015 369.351C323.349 368.817 319.082 367.884 315.215 366.551C311.349 365.217 307.082 363.484 302.415 361.351V326.951C310.149 330.817 317.882 333.817 325.615 335.951C333.349 337.951 340.015 338.951 345.615 338.951C348.549 338.951 351.015 338.484 353.015 337.551C355.015 336.617 356.482 335.351 357.415 333.751C358.482 332.151 359.015 330.351 359.015 328.351C359.015 325.817 358.415 323.684 357.215 321.951C356.015 320.217 353.749 318.417 350.415 316.551C347.082 314.684 342.215 312.417 335.815 309.751C329.815 307.217 324.682 304.617 320.415 301.951C316.282 299.284 312.949 296.284 310.415 292.951C307.882 289.617 306.015 285.751 304.815 281.351C303.615 276.817 303.015 271.484 303.015 265.351C303.015 256.151 305.282 248.484 309.815 242.351C314.482 236.084 320.815 231.417 328.815 228.351C336.815 225.151 346.015 223.551 356.415 223.551C366.282 223.551 374.882 224.617 382.215 226.751C389.682 228.751 395.749 231.084 400.415 233.751L388.215 263.551C382.882 260.751 377.215 258.551 371.215 256.951C365.215 255.217 359.882 254.351 355.215 254.351C352.415 254.351 350.149 254.751 348.415 255.551C346.682 256.351 345.415 257.484 344.615 258.951C343.815 260.284 343.415 261.817 343.415 263.551C343.415 265.817 344.149 267.817 345.615 269.551C347.215 271.284 349.949 273.217 353.815 275.351C357.815 277.351 363.349 280.084 370.415 283.551C376.815 286.484 382.215 289.751 386.615 293.351C391.015 296.951 394.349 301.284 396.615 306.351C398.882 311.284 400.015 317.484 400.015 324.951ZM511.148 324.951C511.148 332.684 509.348 340.017 505.748 346.951C502.282 353.884 496.548 359.551 488.548 363.951C480.548 368.217 469.948 370.351 456.748 370.351C449.815 370.351 443.948 370.017 439.148 369.351C434.482 368.817 430.215 367.884 426.348 366.551C422.482 365.217 418.215 363.484 413.548 361.351V326.951C421.282 330.817 429.015 333.817 436.748 335.951C444.482 337.951 451.148 338.951 456.748 338.951C459.682 338.951 462.148 338.484 464.148 337.551C466.148 336.617 467.615 335.351 468.548 333.751C469.615 332.151 470.148 330.351 470.148 328.351C470.148 325.817 469.548 323.684 468.348 321.951C467.148 320.217 464.882 318.417 461.548 316.551C458.215 314.684 453.348 312.417 446.948 309.751C440.948 307.217 435.815 304.617 431.548 301.951C427.415 299.284 424.082 296.284 421.548 292.951C419.015 289.617 417.148 285.751 415.948 281.351C414.748 276.817 414.148 271.484 414.148 265.351C414.148 256.151 416.415 248.484 420.948 242.351C425.615 236.084 431.948 231.417 439.948 228.351C447.948 225.151 457.148 223.551 467.548 223.551C477.415 223.551 486.015 224.617 493.348 226.751C500.815 228.751 506.882 231.084 511.548 233.751L499.348 263.551C494.015 260.751 488.348 258.551 482.348 256.951C476.348 255.217 471.015 254.351 466.348 254.351C463.548 254.351 461.282 254.751 459.548 255.551C457.815 256.351 456.548 257.484 455.748 258.951C454.948 260.284 454.548 261.817 454.548 263.551C454.548 265.817 455.282 267.817 456.748 269.551C458.348 271.284 461.082 273.217 464.948 275.351C468.948 277.351 474.482 280.084 481.548 283.551C487.948 286.484 493.348 289.751 497.748 293.351C502.148 296.951 505.482 301.284 507.748 306.351C510.015 311.284 511.148 317.484 511.148 324.951Z" fill="#2D2D2D"/>
<line x1="183.302" y1="21.9084" x2="494.302" y2="563.908" stroke="#FF4848" stroke-width="50"/>
</g>
<defs>
<clipPath id="clip0_404_11">
<rect width="1445" height="576" fill="white"/>
</clipPath>
</defs>
</svg>
